<svg width="455" height="504" viewBox="0 0 455 504" fill="none" xmlns="http://www.w3.org/2000/svg">
<path d="M377.179 454.404H360.762V242.044L357.706 234.801L194.164 71.2591L205.773 59.6511L371.583 225.462L377.179 238.723V454.404Z" fill="#343434"/>
<path d="M244.392 63.4434L196.016 111.83C212.794 147.193 211.525 188.98 192.196 223.368H170.307L26.843 58.0039C61.2314 38.6755 103.018 37.4059 138.37 54.1842L186.757 5.80835L244.392 63.4434Z" fill="#343434"/>
<path d="M26.843 58.0039L192.196 223.368C186.888 232.824 180.201 241.723 172.157 249.767L0.433289 78.0438C8.47768 69.9994 17.3867 63.3121 26.843 58.0039Z" fill="#676767"/>
<path d="M410.013 454.404H393.596V241.573L386.317 216.979L180.947 11.608L192.556 0L400.876 208.319L410.013 239.194V454.404Z" fill="#343434"/>
<path d="M444.911 474.649C439.263 457.498 419.869 443.456 401.81 443.456H206.031C187.972 443.456 168.578 457.498 162.93 474.649L153.332 503.795H454.509L444.911 474.649Z" fill="#343434"/>
<path d="M385.393 219.45C389.913 219.45 393.602 223.127 393.602 227.659C393.602 232.179 389.913 235.867 385.393 235.867C380.862 235.867 377.185 232.179 377.185 227.659C377.185 223.127 380.862 219.45 385.393 219.45Z" fill="#FFCC75"/>
<path d="M385.388 265.964C406.544 265.964 423.694 248.814 423.694 227.657C423.694 206.501 406.544 189.351 385.388 189.351C364.231 189.351 347.081 206.501 347.081 227.657C347.081 248.814 364.231 265.964 385.388 265.964Z" fill="#C9C9C9"/>
<path d="M385.388 235.866C380.862 235.866 377.179 232.183 377.179 227.658C377.179 223.132 380.862 219.449 385.388 219.449C389.913 219.449 393.596 223.132 393.596 227.658C393.596 232.183 389.913 235.866 385.388 235.866Z" fill="#082947"/>
</svg>
